
<svg xmlns="http://www.w3.org/2000/svg" version="1.1" xmlns:xlink="http://www.w3.org/1999/xlink" preserveAspectRatio="none" x="0px" y="0px" width="128px" height="128px" viewBox="0 0 128 128">
<defs>
<g id="Layer1_0_FILL">
<path fill="#000000" stroke="none" d="
M 860.85 46.65
Q 860.25 39.6 858.85 35.8 856.6 29.5 851.05 24.75 845.8 20.15 839 18.1 827.05 14.45 811.65 18.35 806.1 19.7 803 21.75 800.2 23.6 796.05 28.5 790.85 34.95 789.05 38.85 788 41.15 786.55 46.05 784.3 53.65 783.75 57.7 782.95 63.4 783.65 72.2 783.9 74.75 784.4 76.65 782.3 79 781.8 79.8 781.5 80.25 780.35 82.45 779.2 84.5 779.1 84.75 778.7 85.85 778.7 87.85 778.6 93.7 778.7 95.6 779 99.3 780 101.45 780.5 102.5 781.2 103.3 781.4 103.55 781.7 103.85 782.9 104.9 784.85 105.55 785.5 105.7 788.4 106.3 789.8 106.6 793.5 107.5 796.5 108.25 798.4 108.6 798.75 110.15 799.65 112.05 800.1 113 800.5 113.75 800.45 114.15 800.45 114.5 800.35 116.7 800.9 119.85 800.9 119.9 800.9 119.95 800.85 120.05 800.8 120.2
L 797.8 128.5
Q 797.5 129.65 797.4 131.4 797.25 134.55 797.75 136.55 798.5 139.4 800.5 140.8 801.85 141.75 803.6 141.85 805.35 141.9 806.8 141 808.05 140.15 808.85 138.75 809.1 139.95 809.55 140.8 810.8 142.95 813.45 143.4 816.15 143.9 817.95 142.25 819.3 141.1 819.8 139.25 820.2 140.35 820.7 141.1 822.15 143.65 824.55 144.25 826.1 144.55 827.65 143.85 829.2 143.2 830.1 141.85 830.5 141.2 830.8 140.55 831.7 141.55 832.9 142.2 834.8 143.25 836.7 142.95 838.85 142.6 840.15 140.6 840.5 140.1 840.75 139.65 841.2 139.65 841.7 139.55 843.3 139.25 844.45 138.2 846.9 135.9 846.7 131 846.6 128.85 845.5 123.55 844.6 120 843.75 118.45 842.8 116.7 841.25 115.6 841.25 115.45 841.25 115.3 841.7 114.15 842.05 113.75 842.3 113.5 842.7 113.25
L 843.45 112.9
Q 844.75 112.2 845.6 110.95 845.8 110.7 846 110.35 848.3 109.8 850.75 108.85 855.55 107.1 863.25 103.05 865.25 102.05 866.15 101.4 867.7 100.35 868.5 99.1 870.85 95.6 868.75 89.75 866.95 84.9 863.55 81.05 860.4 78.05 858.95 76.5 858.95 76.45 858.9 76.45 860.55 72.85 861.2 68.25 861.7 64.3 861.55 58.4 861.4 52.85 860.85 46.65
M 810.35 92.1
Q 811.4 92.55 812.25 92.9 810.9 94.75 810.65 96.9 810.25 97 810.05 97.05 809.1 97.3 806.6 97.3 804.75 97.3 802.75 97.15 800.9 96.95 796.6 95.95 792.55 95 790.5 94.55 790.4 94.55 790.3 94.5 790 92.9 790.05 91.45 790.05 90.05 790.4 88.9 790.85 87.2 793.15 84.4 793.35 84.15 793.55 83.95 794.5 85.05 795.7 86.15 797.85 88.15 799.45 88.9 800.6 89.45 802.45 89.8 803.5 90 805.55 90.4 807.4 90.85 810.35 92.1
M 835.2 97.6
Q 834.45 95.9 833.55 94.55 836.05 94.2 837.25 93.7 839.05 93.05 842.3 91.1 842.95 90.8 846.5 89.4 849 88.4 850.45 87.4 851.2 86.9 851.95 86.1 852.4 86.5 852.9 87 855.5 89.7 856.3 91.1 856.75 91.7 856.65 92.25 856.6 92.6 855.75 93.3 846.85 98.75 838.4 99.6 837.35 99.8 836.6 99.4 835.95 99.1 835.2 97.6
M 830.5 110.1
Q 830.45 110.35 830.4 110.65 830.1 112.65 829.45 113.75 827.15 114 821.75 113.9 816.75 113.75 814.05 114.2 813.9 114.2 813.8 114.25 816.3 111.55 817.9 108.2 818.55 106.9 818.75 105.65 819.8 104.55 820.3 103.15 820.55 102.35 820.65 101.65 821.45 100.85 822.15 99.7 823.7 100.7 824.95 103.35 826.6 106.7 827.2 107.5 828.45 109.1 830.5 110.1 Z"/>
</g>

<g id="Layer1_1_FILL">
<path fill="#000000" stroke="none" d="
M 493.25 196.75
Q 491.3318359375 192.573828125 488.7 189.8 484.1828125 184.9673828125 476.45 182.85 470.857421875 181.36640625 462.1 181.05 451.0974609375 180.687109375 445.1 182.3 435.5263671875 184.8900390625 425.75 194.25 419.38828125 200.3763671875 416.5 205.9 413.206640625 212.4609375 412.85 220.55 412.7490234375 221.7982421875 412.75 223.05 412.6986328125 228.0517578125 413.95 233.1 415.50625 239.2939453125 418.8 244.8 418.823828125 244.9107421875 418.9 245 419.074609375 245.37421875 419.25 245.65 422.9611328125 251.54765625 430.35 258.45 435.3263671875 263.223046875 438.95 264.95 443.0271484375 266.9994140625 449.3 267.5 451.2998046875 267.6873046875 453.3 267.75 463.6173828125 268.116796875 472.25 264.9 477.860546875 262.967578125 482.45 259.4 483.375 258.7 484.3 257.85 483.7880859375 256.3134765625 483.2 254.65 483.1748046875 254.5 483.1 254.35 484.7515625 255.2525390625 486.2 256.05 488.5302734375 253.6337890625 490.3 250.8 492.1642578125 247.95703125 495 241.55 496.860546875 237.117578125 497.65 234.55 499.203515625 229.4515625 499.2 223.4 499.1431640625 214.901171875 496.1 204.6 494.7509765625 199.9017578125 493.25 196.75
M 494.95 258.85
Q 494.65 258.85 494.35 258.85 493.05 258.85 491.9 259.5 490.5 260.2 489.65 261.75 488.75 263.3 488.7 264.95 488.65 266.8 489.6 268.75 490.2 270.05 491.7 271.9
L 494.4 274.9
Q 496.3 276.75 507.35 280.65 508.6 281.1 510 281.6 510.15 281.65 510.25 281.7 509.75 280.25 509.25 278.9 505.45 268.75 504.45 267.9 502 265.85 500.8 264.05 500.35 263.35 499.4 261.95 498.6 260.7 497.85 260.05 496.65 259 494.95 258.85
M 421.3 265.9
Q 422.1 264.5 421.9 262.8 421.7 261.15 420.8 259.9 419.75 258.65 418.15 258 416.65 257.45 415.05 257.7 412.8 258.15 410.1 260.7 408.7 262.2 400.4 281.6 399.75 283 399.25 284.2 404.2 281.55 413.25 275.05 415.8 271.9 417.8 269.95 419.65 268.2 419.75 268.1 420.9 267.05 421.3 265.9
M 434.4 271.35
Q 433.5 270.8 432.75 270.55 432.25 271.5 431.1 272.8 428.9 275.25 427.3 276.75
L 426.1 277.95
Q 425.8 278.3 425.5 278.6 426.25 280 427.7 281.3 430.6 283.9 435.25 285.05 438.4 285.85 443.85 286.25 448.9 286.7 452.35 286.7 467.5 286.8 481.5 280.1 482.9 279.4 484 278.7 482.7 277.2 482.2 276.2 481.85 275.45 481.35 273.7 480.85 272.1 480.4 271.3
L 479.55 270
Q 479 269.1 478.95 268.15 478.7 268.2 478.45 268.3 477.3 268.7 474.6 269.95 462.9 275.4 449.9 274.85 448 274.75 444.1 274.35 441.55 274.1 440.35 273.85 438.2 273.45 436.7 272.7 436.35 272.55 434.4 271.35
M 395.5 167.25
Q 395.55 167.4 395.6 167.55 400.75 183.1 402.95 185.6
L 406 188.55
Q 407.85 190.15 409.2 190.85 411.1 191.85 412.85 191.8 414.35 191.75 415.75 190.85 417.15 190 417.8 188.55 418.5 187.2 418.35 185.55 418.15 183.85 417.3 182.6 416.7 181.8 415.6 180.9 414.3 179.9 413.65 179.35 411.95 178 410 175.25 409.05 174 395.5 167.25
M 404.55 197.7
Q 403.25 197 402.7 196.15 402.65 196.05 402.55 195.9 401.3 196.75 400.4 198.05 399.4 199.65 398.8 201.95 398.4 203.3 397.95 206.05 395.6 222.85 397.55 239.5 398.05 243.1 398.5 244.75 399.15 247.2 400.25 249.4 401.9 252.85 404.05 254.2 404.1 254 404.15 253.85 404.3 253.4 404.8 252.6 405.45 251.85 406.05 251.25
L 407.7 250.05
Q 407.9 249.85 409.35 248.25 410.3 247.1 411.2 246.7 411.6 246.5 412.05 246.4 411.8 245.65 411.35 244.75 410.4 242.95 410.25 242.5 409.55 240.65 409.15 236.9 407.85 224.85 408.95 212.7 409.4 208.05 410.3 205.3 411 203.85 411.25 203.15 411.6 202.2 411.75 201.4 410.85 201.25 409.8 200.85
L 404.55 197.7
M 508.35 194.7
Q 507.65 195.8 507.15 196.5 505.4 198.55 502.8 199.5 500.2 200.55 497.5 200.25 497.4 200.25 497.25 200.25 497.55 201 498.1 201.7 498.6 202.5 499.75 203.3 500.25 203.85 501.55 204.8 505.2 207.85 506.6 212.9 507.95 217.65 507.2 222.8 506.8 225.4 505.6 229.65 504.2 234.5 503.8 236.45 503.05 240.1 502.95 240.4 502.35 242.65 501.2 243.85 500.6 244.6 499 245.65 497.55 246.7 496.95 247.45 496.55 247.9 496.3 248.5 497.1 248.5 498.1 248.75 501.15 249.6 502.95 252.25 504 253.7 504.25 253.9
L 505.2 254.65
Q 505.75 255.05 506.1 255.45 507.35 254.7 508.55 253.4 511.8 250.2 513.3 246.75 514 245.15 515.1 240.8
L 517.5 230.8
Q 518.3 228.1 518.6 226.2 520.1 218.05 518.1 210.3 515.85 202.05 510.4 196.55 509.45 195.45 508.35 194.7
M 489.85 179.15
Q 490.95 176.85 492.65 174.95 491.55 172.9 489.4 171.05 484.45 166.9 476.8 165 472.15 163.85 462.3 163.15 459.6 162.8 457.35 162.8 456.7 162.75 456.2 162.8 455.7 162.7 455.15 162.75 451.65 162.6 449.25 163 442.95 163.45 436.2 166.15 429.2 169.35 425.5 170.55 423.45 171.15 422.45 171.55 421.35 171.8 420.55 172.3 421 173.1 421.35 173.8 423.2 177.55 424.05 182.1 424.3 183.45 424.45 184.75 424.55 184.7 424.75 184.75 427.1 184.1 432.7 181.55 438.25 178.8 442.05 177.4 447 175.65 451.15 175.35 453.95 175.05 461.45 175.6 470.25 176.15 471.75 176.35 477.35 177.3 480.8 180 481.9 180.8 484 182.8 486 184.3 487.7 184.5 487.75 184.5 487.85 184.55 488.45 181.6 489.85 179.15
M 517.3 164.95
Q 517.55 164.25 517.8 163.65 509 170.15 503.55 174.15 495.2 180.1 494.75 180.65 493.3 182.5 492.95 184.2 492.55 185.8 493.05 187.5 493.45 189.2 494.7 190.3 495.95 191.5 497.65 191.75 499.45 191.95 500.9 191.2 502 190.6 503.7 188.6
L 506.8 185.1
Q 511.35 179.85 517.3 164.95 Z"/>
</g>

<g id="Layer1_2_FILL">
<path fill="#000000" stroke="none" d="
M 107.85 30.25
Q 110.063671875 9.776953125 111.85 0.45 111.1373046875 0.1755859375 110.3 0.05 108.4 -0.2 106.6 0.45 105.05 1 103.3 2.15 102.5 2.7 100.3 4.45 87.05 14.8 68.05 24.6 60.2568359375 28.5583984375 27.4 50.75 32.50625 51.1822265625 38.75 51.75 40.25 51.65 41.8 51.4 42.95 51.55 44.55 51.55
L 60.55 51.7
Q 60.15 52.2 59.75 52.7
L 56.15 57.4
Q 53.35 60.95 51.6 62.4 49.75 63.7 48.8 64.4 47.2017578125 65.653125 45.85 67.55 44.493359375 69.439453125 40.65 74.6 36.8072265625 79.7611328125 42.65 77.15 48.497265625 74.5458984375 50.25 75.05 50.3 75.05 50.35 75.1
L 48.8 77.2
Q 43.6 84 41.55 86.5 37.448828125 91.5943359375 36.2 95.6 34.9552734375 99.6619140625 32.8 103.7 30.638671875 107.7916015625 16 127.6 16.7353515625 127.901953125 17.6 127.95 19.3 128.1 20.9 127.4 22.3 126.85 23.75 125.7 24.55 125.1 26.25 123.55
L 57.35 94.4
Q 61.65 90.4 64.35 89.3 64.9052734375 89.1041015625 64.7 91.4 64.4837890625 93.6873046875 63.8 95.85 63.166015625 98.0125 68.55 90.65 73.94453125 83.345703125 75.55 80.8 80.7 72.55 85.7 64.35 86.303515625 67.9509765625 88.05 76.05 89.8447265625 84.149609375 93.1 93 96.3478515625 101.8953125 96.7 102.95 98.1509765625 102.7837890625 99.25 101.95 100.8 100.75 101.45 98.4 101.95 96.8 102.2 93.95 104.0044921875 66.446484375 107.85 30.25 Z"/>
</g>

<g id="Layer1_3_FILL">
<path fill="#000000" stroke="none" d="
M -545.05 266.95
Q -544.8333984375 268.12578125 -544.45 269.05 -528.0900390625 280.8853515625 -499.15 282.1 -470.1533203125 283.3546875 -462.05 281.4 -450.4 278.55 -443.5 271.45 -439.9 267.75 -439.5 264.2 -438.95 259.25 -444 254 -447.35 250.5 -451.25 248.75 -462.1 245.35 -467.7 246.55 -473.35 247.7 -473.1 249.15 -471.1 248.35 -465.3 250 -459.5 251.6 -460.6 256.5 -460.75 256.6 -460.8 257.2 -460.85 257.3 -460.8 257.45 -460.7 257.75 -460.45 258.15 -460.05 258.8 -459.1 259.85 -457.35 261.85 -460.3 262.25 -463.25 262.6 -462.7 263.4 -462.15 264.2 -461.25 264 -460.4 263.75 -455.9 266.75
L -455.85 266.75
Q -457.85 267.95 -459.9 268.85 -464.2 270.65 -470.65 271.55 -476.8 272.35 -483.75 272.3
L -483.8 272.25
Q -486.4 270.75 -487.45 269.95 -488.5 269.15 -488.9 270.35 -489.35 271.5 -492.85 271.75 -495.15 271.55 -497.5 271.25 -505.85 270.15 -520.95 266.95 -529.65 262.95 -525.95 262.8 -522.25 262.6 -523.05 261.65 -523.9 260.65 -525.35 260.4 -526.35 260.25 -527.75 260.35 -529.3 260.55 -530.1 260.6 -531 260.55 -531.7 260.5 -532.95 258 -525.75 253 -518.6 248 -509.05 250.25 -513.35 247 -520.35 246.45 -527.4 245.9 -535.25 249.8 -543.1 253.7 -544.6 257.2 -545.15 258.55 -545.25 260.35 -545.35 261.4 -545.3 263.6 -545.25 265.85 -545.05 266.95
M -494.2 215.85
Q -500.25 207.85 -512.15 201.15 -524.1 194.4 -536.9 195.3 -549.75 196.15 -560.55 208.5 -560.4 208.45 -560.2 208.4 -559.05 208.45 -557.7 208.15 -557.1 208.05 -555.1 207.65 -553.45 207.25 -552.5 207.2 -551.2 207 -549.3 207.1
L -545.35 207.1
Q -543.2 207.1 -542.2 207.45
L -544 210.35
Q -548.65 213.8 -553.2 219.25 -553.9 220.1 -556.3 228.65 -538.85 214.95 -529.35 219.7 -519.85 224.45 -514.4 226.5 -507.9 229.05 -504.45 234.1 -503.2 235.95 -501.95 238.8 -501.25 240.4 -500 243.75 -499.05 246.25 -498.5 247.75
L -499.2 247.75
Q -502.7 247.75 -504.35 248.7 -504.7 248.9 -505 249.15 -505.05 249.2 -505.1 249.25 -505.05 249.3 -505 249.35 -503.1 250.5 -498.3 256.75 -493.55 262.95 -491.35 265.95 -489.2 268.95 -488.65 267.45 -488.15 265.9 -484.7 259.1 -481.2 252.3 -475.35 249 -475.8 248.65 -476.35 248.4 -477.75 247.75 -480.9 247.75
L -484.85 247.75
Q -484.9 245.8 -484.9 244.4 -485.05 238.2 -485.9 233.75 -487.85 224.25 -494.2 215.85 Z"/>
</g>

<g id="Layer1_4_FILL">
<path fill="#000000" stroke="none" d="
M 523.1 519.15
Q 522.1568359375 516.35078125 521.7 514.55 520.9150390625 516.3787109375 519.75 518.9 514.0029296875 531.801171875 513.2 536.6 512.85 539.1 512.9 540.7 513 542.95 514 544.5 514.85 545.65 516.15 546.25 517.5 546.95 518.9 546.85 520.3 546.75 521.55 545.95 522.75 545.05 523.4 543.85 524 542.7 524.25 540.65 524.6 538.2 524.8 537 525.1 534.85 525.5 533.45 526.747265625 529.6021484375 523.1 519.15
M 550.2 517.05
Q 549.7 516.55 548 514.4 546.6 512.7 545.6 511.85 543.55390625 510.4515625 534.4 507.45 529.79765625 505.978125 528.05 505.05 528.0015625 505.1439453125 527.95 505.2 528.2697265625 506.0626953125 535.25 516.1 539.839453125 522.6267578125 542.4 525.8 545.2 528.35 547.9 528.3 549.35 528.25 550.7 527.45 552.05 526.6 552.7 525.25 553.35 523.9 553.25 522.4 553.2 520.8 552.35 519.6 552.05 519.05 550.2 517.05
M 495.8 494.6
L 495.8 494.55
Q 490.663671875 495.10078125 479.95 492.65 469.2546875 490.198046875 468.3 490.2 466.65 490.25 465.4 490.8 464.2 491.3 463.3 492.4 462.45 493.5 462.2 494.85 461.95 496.2 462.35 497.5 462.75 498.85 463.7 499.75 465.45 501.45 468.85 501.9 470.905078125 502.148828125 479.8 500.05 488.4533203125 498.057421875 495.8 494.6
M 501.6 467.5
Q 500.7 466.35 498.3 464.55 496 462.85 494.8 462.4 493.2 461.8 491.1 461.95 489.5 462.05 488.25 462.65 486.8 463.35 485.95 464.8 485.1 466.3 485.15 467.9 485.25 469.6 486.3 470.9 487.3 472.3 488.8 472.85 489.25 473 490.15 473.25 490.9 473.5 491.4 473.8 492.25 474.25 493.45 476.15 495.7505859375 479.8513671875 506 481.25 508.85546875 481.6388671875 510.45 482 509.1998046875 480.498828125 506.05 475.05 502.1978515625 468.34609375 501.6 467.5
M 522.75 445.45
Q 521.3 444.65 519.75 444.7 518.15 444.75 516.8 445.7 515.45 446.6 514.85 448.1 514.5203125 448.8791015625 514.35 450
L 520.3 474.95
Q 520.821484375 474.2626953125 521.2 473.35 521.85 471.95 522.35 469.5
L 523.5 464.3
Q 524.15 461.65 524.2 461.5 525.05 459.05 525.15 458.6 525.7 456.7 525.7 452.65 525.6 449.25 524.9 447.75 524.15 446.35 522.75 445.45
M 569.05 493.1
Q 569.8 491.75 569.75 490.1 569.65 488.45 568.75 487.15 567.9 485.9 566.4 485.2 564.95 484.55 563.35 484.75 563.05 484.8 560.35 485.55 557.85 485.9 556.6 486.05 555.3 486.3 551.95 487.3 549.0052734375 488.19453125 542.25 493.05 540.31484375 494.441796875 539.15 495.1 539.4875 495.11640625 539.9 495.1 543.7994140625 495.2056640625 560.3 496 562.889453125 496.1521484375 564.9 496.25 567.860546875 495.2044921875 569.05 493.1
M 572.55 443.8
Q 572.4330078125 443.69453125 572.3 443.55 561.8107421875 443.3328125 532.85 468.1 526.98515625 473.140234375 522.1 477.4 502.9544921875 494.04609375 499.05 498.7 494.2 504.5494140625 485.75 511.2 482.15 513.9 480.4 515.35 477.4 517.75 475.5 519.9 474.75 520.7 474.2 521.55 474.1 521.5 474 521.45 472.35 520.6 470.55 520.55 468.65 520.5 467.2 521.35 465.95 522.05 465.2 523.4 464.5 524.65 464.5 526.1 464.45 527.55 465.15 528.85 465.85 530.15 467.1 530.9 467.4 531.1 468.4 531.65 469.2 532.05 469.65 532.4 470.1 532.75 470.65 533.45 470.8 533.6 470.95 533.8 466.65 538.15 461.1 544.6 458.45 547.8 457.3 549.25 457.1 549.5 456.95 549.75 455.55 549.6 453.65 549.7 451.55 549.8 450.45 550.35 449.3 551 447.95 553 447.2 554.15 446.95 554.75 446.65 555.6 446.5 556.5 446.15 558.4 446.1 559.35 445.95 562.6 448 565.05 448.75 565.8 449.8 566.6 451.2 567.6 452.1 568 453.65 568.55 455.95 568.4 457.9 568.25 459.8 567.95 461.2 567.7 462.1 567.3 463.35 566.7 464.35 565.3 465.05 564.2 465.45 562.95 465.75 561.85 465.85 560.15 465.85 558.65 465.65 557.55 466.05 557.15 466.45 556.55 467.05 555.75 468.15 554.05 468.9 552.95 470.8 550.75 475.35 545.55 478.7 542.25 479.7 543.5 480.55 544.3 481.95 545.75 483.7 546.9 485.55 548.1 487.1 548.5 488.65 548.8 490.15 548.25 491.75 547.75 492.7 546.55 493.7 545.3 493.9 543.7 494.1 542.05 493.45 540.7 492.9 539.65 491.8 538.5 496.05 534.5 505.15 525.5
L 518.3 512.3
Q 536.45 494.15 545.2 484.8 559.8017578125 469.1958984375 570.85 447.2 571.7517578125 445.431640625 572.55 443.8
M 487 524.75
Q 488.3060546875 523.3583984375 490.95 519.95 493.59375 516.5892578125 565.35 451.1 507.2853515625 513.85546875 484.7 529.1 484.55 528.95 484.45 528.85 484.15 528.55 483.8 528.25 485.7501953125 526.150390625 487 524.75 Z"/>
</g>

<g id="Layer1_5_FILL">
<path fill="#000000" stroke="none" d="
M 756.5 304.35
Q 755.15 303.15 751.95 301.45 748.1 299.55 745.8 299.3 742.05 298.8 739.7 300.9 737.75 302.65 737.2 306.3 737.05 307.35 737 309.35 736.95 311.45 736.85 312.35 736.55 314.45 735.65 317.75 734.15 322.95 732.1 328.5 731.1 331.1 731 332.55 730.85 334.75 732.3 337.45 733.45 339.55 734.95 340.75 736.85 342.35 739.45 342.7 742.05 343.05 744.35 342.05 747.55 340.65 749.8 336.7 750.65 335.3 751.55 333.25 752.5 330.85 753 329.65 754.1 327.15 754.65 325.9 755.55 323.65 755.95 322 756.45 319.55 756.8 318.35 758 315.25 758.55 313.7 759.55 310.95 759.2 308.95 758.85 306.55 756.5 304.35
M 691.2 394.2
Q 690.85 394.8 690.65 395.05 690.3 395.6 689.95 395.85 689.45 396.25 687.8 396.6 682.5 397.7 681 400.7 680.25 402.35 680.65 404.3 681.05 406.1 682.3 407.55 684.4 410 688.7 411.15 692 412.05 698.1 412.65 703.5 413.15 706.2 413.3 710.7 413.6 714.35 413.45 720.05 413.25 722.1 410.6 723.45 408.85 723.15 406.5 722.85 404.15 721.25 402.6 720.85 402.2 719.8 401.4 718.8 400.7 718.3 400.2 717.45 399.3 716.7 397.85
L 715.05 395.05
Q 713.6 392.7 712.85 391.75
L 710.7 389.35
Q 709.8 388.2 709.3 387.65 708.45 386.7 707.7 386.2 706.4 385.35 704.85 385.35 703.25 385.3 701.95 386.1 701.2 386.55 700.15 387.6 698.9 388.9 698.45 389.25 697.7 389.85 694.6 391.5 692.15 392.8 691.2 394.2
M 688.9 326.1
Q 689.3 322.65 688.8 321 688.3 319.3 686.9 318.1 685.55 316.9 683.8 316.6 682.05 316.3 679.9 316.95 678.7 317.35 676.15 318.5 665.55 323.45 654.15 326.1 651 326.85 649.4 327.65 646.9 328.95 646.2 331 645.5 332.9 646.55 335.85 648.15 340.4 648.2 340.8 648.5 342.45 648.2 344.75 648.05 346.1 647.6 348.7 647.15 352 647.5 357.2 647.9 364.1 647.9 365.7 647.85 368.2 647.95 369.15 648.1 371.05 648.85 372.35 650.9 375.95 657.4 375.95 661.05 375.95 661.4 376 663.7 376.15 665.1 377.1 666.45 378.05 667.4 379.9 668 381.15 668.7 383.45
L 671.2 391.95
Q 671.95 394.45 672.65 395.75 673.7 397.7 675.25 398.5 678.45 400.2 683.65 397.15 687.35 395.05 694.25 389.65 697.45 387.15 699 385.6 701.45 383.15 702.6 380.65 703.9 377.85 704.1 373.8 704.2 372.6 704.05 366.65 703.95 363.05 703.7 361.6 703.3 358.85 702 357.05 700.3 354.6 695.85 352.8 689 350 681.7 349.6 684.65 345.5 686.3 340.55 687.7 336.35 688.4 330.35
L 688.9 326.1
M 726.5 342.4
Q 724.6 343.3 723.75 345 723.55 345.4 723.1 346.7 722.7 347.8 722.3 348.35 721.65 349.3 719.9 350.35 716.2 352.7 712.25 355.95 709.6 358.1 708.85 359.85 708.25 361.2 708.25 363.2 708.2 364.35 708.35 366.7 708.35 367.4 708.2 371.8 708.05 374.9 708.45 376.85 708.95 379.4 710.7 382.55 711.65 384.4 713.8 387.95 714.7 389.55 716.4 392.75 717.95 395.4 719.75 396.85 721.05 397.9 723 398.75 723.3 398.9 726.5 400.2 728.8 401.15 729.75 401.45 731.65 401.95 733.15 401.7 734.75 401.4 736 400.2 737.3 398.95 737.65 397.35 738.05 395.75 737.5 394.1 737 392.45 735.75 391.3 734.9 390.6 734.5 390.2 733.75 389.55 733.55 388.85 733.2 387.35 734.55 386 735.25 385.35 737.15 384.3 743.75 380.55 747.15 372.15 749.55 366.2 750.55 356.55 750.95 353.25 750.55 351.4 749.95 348.4 747.9 347.15 745.7 345.85 741.3 346.85 738.65 347.55 738 347.65 736.1 347.95 734.7 347.6 734.7 345.7 733.4 344.05 732.1 342.4 730.25 342 728.35 341.55 726.5 342.4
M 696.3 336.35
Q 695 336.4 694.05 336.7 692.25 337.3 691.1 338.95 689.95 340.55 690 342.45 690.05 344.35 691.3 345.95 691.34609375 346.00703125 691.4 346.05 691.5203125 346.7474609375 691.8 347.4 692.4 348.8 693.65 349.8 694.85 350.75 696.35 351.1 696.6 351.15 697.95 351.35 698.95 351.5 699.55 351.75 700.25 352.1 701.1 352.85 701.55 353.3 702.45 354.15 704.95 356.15 708.05 355.6 709.65 355.35 712.1 353.85 714.75 352.3 717.6 350.2 719.25 349 719.85 348.1 720.75 346.85 720.85 345.25 720.8548828125 345.1685546875 720.85 345.1 721.0298828125 344.0798828125 720.85 343 720.45 340.2 718 338.75 716.65 337.95 714.45 337.75 711.9 337.65 710.65 337.5 709.6 337.4 707.55 337 705.45 336.6 704.4 336.5 703.25 336.4 701.55 336.35
L 698.65 336.35
Q 696.45 336.35 696.3 336.35
M 682 287.45
Q 681.1 289.3 680.8 292.65 680.4 297.8 680.45 302.05 680.55 307.7 682.2 310.4 683.1 311.8 684.8 313.3 685.8 314.15 687.85 315.7 691.85 318.9 692.35 321.9 692.6 323.2 692.15 326.15 691.75 328.95 692.1 330.35 692.5 331.95 693.7 333.2 694.95 334.4 696.55 334.75 698.2 335.1 699.85 334.55 701.5 334 702.55 332.7 704.3 330.55 704.3 326.7 704.35 325.65 704.2 323.5 704.05 321.4 704.05 320.3 704.05 318.55 704.65 315.15 706.1 305.2 705.6 295.65 705.4 291.1 704.4 288.3 702.85 284.2 699.7 282.75 697.9 281.85 694.45 281.75 690.3 281.65 687.35 282.85 683.55 284.3 682 287.45
M 675 293.05
Q 672.75 289.3 669.8 288.05 668 287.3 664.45 287.3 660.05 287.35 654.45 288.3 651.2 288.9 649.55 289.75 646.95 291.2 645.9 294.1 645.1 296.35 645.5 300.75
L 646.5 313.85
Q 646.8 317.6 648 319.1 649.75 321.4 654.65 321.6 658.65 321.75 663.55 321.05 666.65 320.6 672.35 319.4 675.25 318.8 676.65 318.15 679.05 317 679.8 315.05 680.1 314.3 680.2 313.15 680.25 313.05 680.3 311.2 680.4 309.05 680.45 307.95 680.5 306.05 680.2 304.75 679.95 303.65 679.3 302.2 678.5 300.6 678.1 299.75 676.25 295.2 675 293.05
M 733.95 296.5
Q 733.95 292.65 733.15 290.7 731.8 287.35 727.75 285.45 725.2 284.25 720.3 283.65 718.4 283.4 717.2 283.5 715.45 283.6 714.2 284.25 711.8 285.5 710.55 289 709.9 290.95 709.1 295 708.7 296.45 707.8 299.4 706.75 303.5 707.6 311.05 708.5 319.4 708.05 322.85 707.85 324.5 707.3 327.85 707.1 330.75 708.2 332.55 709.3 334.45 711.65 335.05 714.05 335.7 715.95 334.55 716.95 333.9 717.45 333.75 717.6 333.7 719.05 333.85 721.1 334.05 723.05 332.55 724.35 331.55 725.85 329.4 732.05 320.5 733.5 309.95 734.15 305.5 733.95 296.5 Z"/>
</g>

<g id="Layer1_6_FILL">
<path fill="#000000" stroke="none" d="
M 931.4 395.85
L 930.2 395.3 929 391.15 927.8 390.55 927.8 388.8
Q 925.8 386.8 924.25 384.45 922.85 385.2 921.85 386.05 919.15 388.1 915.6 393.4 911 400.35 909.65 404.4 908.8 406.85 907.9 411.8 906.4 419.55 906.25 423.65 906 429.35 907.6 438.05 908.1 440.55 908.7 442.4 906.9 445 906.5 445.85 906.25 446.3 905.3 448.55 904.4 450.7 904.3 450.95 904 452.1 904.2 454.1 904.65 459.9 904.95 461.8 905.55 465.5 906.8 467.45 907.45 468.45 908.2 469.2 908.45 469.45 908.75 469.7 910.05 470.6 912.05 471.05 912.8 471.2 915.65 471.45 917.05 471.6 920.85 472.15 923.95 472.6 925.85 472.75 926.35 474.35 927.45 476.1 927.95 476.95 928.45 477.65 928.4 478.05 928.45 478.45 928.55 480.65 929.45 483.75 929.45 483.8 929.45 483.85 929.45 483.9 929.4 484.05
L 927.2 492.65
Q 927.05 493.8 927.15 495.5 927.3 498.65 927.95 500.6 929 503.4 931.1 504.55 932.6 505.35 934.3 505.3 936.05 505.15 937.4 504.1 938.55 503.15 939.15 501.7 939.6 502.85 940.1 503.65 941.55 505.7 944.25 505.85 947 506.05 948.6 504.3 949.8 503 950.15 501.15 950.65 502.15 951.2 502.85 952.9 505.25 955.4 505.6 956.9 505.75 958.4 504.9 959.85 504.05 960.65 502.6 960.95 502 961.2 501.3 961.65 501.65 962.1 502 962.05 501.15 962.05 500.35
L 963.25 499.2
Q 964.55 494.85 963.75 490.8 963.2 488.2 962.05 486.8
L 955 479.7
Q 953.85 477.65 953 475.45 951.5 475.55 949.55 475.7 944.6 476.05 941.95 476.8 941.8 476.8 941.75 476.85 943.95 473.9 945.2 470.45 945.65 469.1 945.8 467.85 946.7 466.65 947.05 465.15 947.25 464.35 947.25 463.65 948 462.75 948.55 461.6 949.3 462 950 462.7 949.8 461.75 949.65 460.8 944.2 446.7 940.9 430.7 937.4 413.45 931.75 398.3 931.35 397.2 931.4 395.85
M 928 453.7
Q 929.05 453.8 931.15 453.95 933 454.3 936.1 455.15 937.15 455.5 938 455.8 936.85 457.8 936.85 459.9 936.5 460.1 936.25 460.15 935.35 460.5 932.85 460.75 931 460.95 929.05 460.95 927.2 460.95 922.85 460.4 918.7 459.85 916.6 459.6 916.5 459.6 916.35 459.55 915.95 458 915.85 456.55 915.7 455.2 915.95 454 916.2 452.25 918.25 449.25 918.4 449 918.6 448.7 919.65 449.7 920.95 450.75 923.25 452.5 924.95 453.1 926.15 453.6 928 453.7
M 988.3 394.2
Q 983 389.65 976.2 387.7 964.2 384.15 948.85 388.1 945.3 389.1 942.8 390.25 944.2 392.75 946 394.95
L 945.85 396.7 947 397.4 947.8 401.65 948.95 402.3
Q 948.75 403.65 949.1 404.75 953.3 420.35 955.25 437.85 957.05 454.1 961.2 468.65 961.3 469.55 961.4 470.5 962.15 471.45 962.95 472.9 964.6 476.3 965.1 477.05 965.76953125 477.843359375 966.6 478.5 967.441796875 479.170703125 968.45 479.7 968.35 479.9 968.35 480.15 968.15859375 481.642578125 967.7 482.65
L 971.25 495.6
Q 972.25 497.15 972.5 499.75 973 503.9 971.3 508.1
L 970 509.1
Q 969.95 509.9 969.9 510.8 970.45 511.3 971.25 511.7 973.15 512.75 974.95 512.35 977.05 511.95 978.4 509.95 978.7 509.5 978.95 508.95 979.4 508.95 979.9 508.9 981.5 508.65 982.65 507.6 985.05 505.3 984.85 500.35 984.7 498.2 983.6 492.95 982.7 489.4 981.8 487.9 980.85 486.1 979.2 485 979.25 484.9 979.3 484.75 979.7 483.5 980 483.15 980.3 482.85 980.7 482.65
L 981.5 482.3
Q 982.75 481.65 983.65 480.35 983.85 480.05 983.95 479.75 986.25 479.2 988.7 478.25 993.5 476.45 1001.15 472.35 1003.2 471.3 1004 470.65 1005.55 469.6 1006.35 468.35 1008.7 464.8 1006.5 459 1004.75 454.1 1001.3 450.35 998.05 447.45 996.6 445.85 996.6 445.8 996.55 445.8 998.25 442.15 998.8 437.55 999.3 433.65 999.05 427.7 998.85 422.25 998.25 416.05 997.6 408.95 996.2 405.2 993.9 398.9 988.3 394.2
M 994.05 460.4
Q 994.5 460.95 994.4 461.5 994.4 461.9 993.55 462.6 984.7 468.2 976.3 469.1 975.25 469.3 974.5 468.95 973.9 468.65 973.1 467.15 972.3 465.4 971.4 464.05 973.95 463.7 975.1 463.2 976.85 462.5 980.15 460.55 980.75 460.25 984.25 458.9 986.8 457.85 988.2 456.8 989 456.3 989.75 455.45 990.15 455.85 990.7 456.35 993.3 459.1 994.05 460.4 Z"/>
</g>
</defs>

<g id="characteristic_move_svg">
<g transform="matrix( 1, 0, 0, 1, -230.95,149.95) ">
<use xlink:href="#Layer1_0_FILL"/>
</g>

<g transform="matrix( 1, 0, 0, 1, 0,0) ">
<use xlink:href="#Layer1_1_FILL"/>
</g>

<g transform="matrix( 1, 0, 0, 1, 0.1,0) ">
<use xlink:href="#Layer1_2_FILL"/>
</g>

<g transform="matrix( 1, 0, 0, 1, 58.5,-58.7) ">
<use xlink:href="#Layer1_3_FILL"/>
</g>

<g transform="matrix( 1, 0, 0, 1, -735.95,-364.7) ">
<use xlink:href="#Layer1_4_FILL"/>
</g>

<g transform="matrix( 0.9714813232421875, 0, 0, 0.9715423583984375, -901.05,-18.1) ">
<use xlink:href="#Layer1_5_FILL"/>
</g>

<g transform="matrix( 1, 0, 0, 1, -904.1,-208) ">
<use xlink:href="#Layer1_6_FILL"/>
</g>
</g>

<g id="Layer_7"/>
</svg>
